<?xml version="1.0" encoding="utf-8"?>
<!-- Generator: Adobe Illustrator 18.0.0, SVG Export Plug-In . SVG Version: 6.00 Build 0)  -->
<!DOCTYPE svg PUBLIC "-//W3C//DTD SVG 1.1//EN" "http://www.w3.org/Graphics/SVG/1.1/DTD/svg11.dtd">
<svg version="1.1" id="Layer_1" xmlns="http://www.w3.org/2000/svg" xmlns:xlink="http://www.w3.org/1999/xlink" x="0px" y="0px"
	 viewBox="0 0 29 29" enable-background="new 0 0 29 29" xml:space="preserve">
<g>
	<g>
		<g transform="translate(7.000000, 5.000000)">
			<g>
				<path fill="#FFFFFF" d="M12.4,8V4.8c0-2.6-2.2-4.8-4.9-4.8C4.8,0,2.6,2.1,2.6,4.8V8H0v11h15V8H12.4L12.4,8z M7.9,13.8v1.5H7.1
					v-1.5C6.5,13.7,6,13.1,6,12.4C6,11.6,6.7,11,7.5,11S9,11.6,9,12.4C9,13.1,8.5,13.7,7.9,13.8L7.9,13.8z M11.6,8H3.4V4.8
					c0-2.2,1.9-4,4.1-4c2.3,0,4.1,1.8,4.1,4V8L11.6,8z"/>
				<path fill="#FFFFFF" d="M7.5,11.7c-0.4,0-0.8,0.3-0.8,0.7c0,0.4,0.3,0.7,0.8,0.7s0.8-0.3,0.8-0.7C8.3,12,7.9,11.7,7.5,11.7
					L7.5,11.7z"/>
			</g>
		</g>
	</g>
</g>
</svg>
