<?xml version="1.0" encoding="utf-8"?>
<!-- Generator: Adobe Illustrator 18.0.0, SVG Export Plug-In . SVG Version: 6.00 Build 0)  -->
<!DOCTYPE svg PUBLIC "-//W3C//DTD SVG 1.1//EN" "http://www.w3.org/Graphics/SVG/1.1/DTD/svg11.dtd">
<svg version="1.1" id="Layer_1" xmlns="http://www.w3.org/2000/svg" xmlns:xlink="http://www.w3.org/1999/xlink" x="0px" y="0px"
	 viewBox="0 0 29 29" enable-background="new 0 0 29 29" xml:space="preserve">
<g>
	<g>
		<g transform="translate(5.000000, 5.000000)">
			<path fill="#FFFFFF" d="M15.9,15.9c-0.8-0.3-1.9-0.4-2.6-0.5c-0.4-0.1-1-0.3-1.2-0.5c-0.2-0.2-0.1-2.4-0.1-2.4s0.4-0.6,0.6-1.1
				c0.2-0.5,0.4-1.9,0.4-1.9s0.4,0,0.5-0.7c0.2-0.8,0.4-1.1,0.4-1.7c0-0.5-0.3-0.6-0.3-0.6l0,0c0,0,0.3-0.8,0.3-2.5c0-2-1.5-4-4.4-4
				S5,2,5.1,4c0,1.7,0.3,2.5,0.3,2.5l0,0c0,0-0.3,0-0.3,0.6c0,0.6,0.2,0.9,0.4,1.7C5.6,9.5,6,9.5,6,9.5s0.2,1.4,0.4,1.9
				C6.6,11.8,7,12.4,7,12.4s0.1,2.2-0.1,2.4c-0.2,0.2-0.8,0.5-1.2,0.5c-0.7,0.2-1.8,0.3-2.6,0.5C2.4,16.2,0,17.1,0,19h9.5H19
				C19,17.1,16.6,16.2,15.9,15.9L15.9,15.9z"/>
		</g>
	</g>
</g>
</svg>
