<?xml version="1.0" encoding="utf-8"?>
<!-- Generator: Adobe Illustrator 18.0.0, SVG Export Plug-In . SVG Version: 6.00 Build 0)  -->
<!DOCTYPE svg PUBLIC "-//W3C//DTD SVG 1.1//EN" "http://www.w3.org/Graphics/SVG/1.1/DTD/svg11.dtd">
<svg version="1.1" id="Layer_1" xmlns="http://www.w3.org/2000/svg" xmlns:xlink="http://www.w3.org/1999/xlink" x="0px" y="0px"
	 viewBox="0 0 29 29" enable-background="new 0 0 29 29" xml:space="preserve">
<g>
	<g>
		<g transform="translate(6.000000, 6.000000)">
			<path fill="#FFFFFF" d="M16.2,12.3c-0.7-0.7-2.7-2.1-4-2.1c-0.3,0-0.6,0.1-0.8,0.2c-0.6,0.4-1.2,0.7-1.4,0.7
				c-0.1,0-0.3-0.1-0.6-0.4l-0.1,0C8.5,10,8.3,9.8,8,9.4L7.9,9.3C7.8,9.2,7.8,9.2,7.7,9.1C7.4,8.8,7.2,8.6,6.4,7.7l0,0
				C6,7.3,5.8,7,5.8,6.8c0-0.2,0.2-0.5,0.6-1.1C6.9,5,6.9,4.2,6.4,3.2C6,2.4,5.4,1.6,4.9,0.9l0-0.1C4.4,0.3,3.8,0,3.2,0
				C2.5,0,2,0.4,1.7,0.6c0,0,0,0-0.1,0C0.9,1,0.4,1.6,0.2,2.2C0,3.1-0.2,4.3,1.1,6.7c1.1,2.1,2.2,3.5,3.8,5.2
				c1.5,1.6,2.2,2.1,3.8,3.2c1.7,1.2,3.3,1.9,4.5,1.9c1.1,0,1.9,0,3.1-1.4C17.5,14,17,13.1,16.2,12.3L16.2,12.3z"/>
		</g>
	</g>
</g>
</svg>
